<svg xmlns="http://www.w3.org/2000/svg" version="1.1" width="512" height="512" x="0" y="0" viewBox="0 0 512 512"
     style="enable-background:new 0 0 512 512" xml:space="preserve" class=""><g><path fill="#088faf" d="M59.21 215.34 32.2 242.43h27.01zM452.73 215.34l27.02 27.09h-27.02z" data-original="#088faf"></path><path
        fill="#f1f1f1"
        d="M453.06 109.29a10 10 0 0 0-2.93-7.07L350.71 2.8a10 10 0 0 0-7.07-2.93H69.22a10 10 0 0 0-10 10v492a10 10 0 0 0 10 10h373.84a10 10 0 0 0 10-10z"
        data-original="#f1f1f1" class=""></path><path fill="#cccccc"
                                                      d="M452.73 106.8a9.88 9.88 0 0 0-2.6-4.58L350.71 2.8a10 10 0 0 0-7.07-2.93v94.92a12 12 0 0 0 12 12z"
                                                      data-original="#cccccc"></path><path fill="#e8e8e8"
                                                                                           d="M452.73 106.8h-97.08a12 12 0 0 1-12-12v10.15c0 6.63 4.12 15 12.38 15h97v-10.66a6.46 6.46 0 0 0-.3-2.49z"
                                                                                           data-original="#e8e8e8"></path><path
        fill="#29abe1"
        d="M472.11 412.17H39.89a10 10 0 0 1-10-10V248.83a10 10 0 0 1 10-10h432.22a10 10 0 0 1 10 10v153.33a10 10 0 0 1-10 10.01z"
        data-original="#29abe1" class=""></path><path fill="#e0e0e0" d="M59.21 412.17h393.85v12.97H59.21z"
                                                      data-original="#e0e0e0"></path><g fill="#fff"><path d="M119.48 364.25a8.49 8.49 0 0 1-2.2-6.3v-53.53a7.68 7.68 0 0 1 8.5-8.5H146q11.72 0 20.16 4.25a30.09 30.09 0 0 1 13 12.16q4.5 7.91 4.5 18.81t-4.45 19a29.38 29.38 0 0 1-12.91 12.15q-8.44 4.2-20.26 4.2h-20.26a8.52 8.52 0 0 1-6.3-2.24zm25.21-12.6q10.31 0 15.46-5.06t5.15-15.45q0-10.41-5.15-15.41t-15.46-5h-9v40.92zM209.38 362.9a30.33 30.33 0 0 1-12.26-12.6 44.84 44.84 0 0 1 0-38.32 30.06 30.06 0 0 1 12.26-12.56 42.19 42.19 0 0 1 37.52 0A29.74 29.74 0 0 1 259.1 312a45.07 45.07 0 0 1-.05 38.32 30.33 30.33 0 0 1-12.26 12.6 41.45 41.45 0 0 1-37.41 0zm31.26-15.3q4.5-5.66 4.5-16.46t-4.55-16.41q-4.54-5.61-12.45-5.6t-12.51 5.55q-4.5 5.55-4.5 16.46t4.5 16.51q4.5 5.6 12.51 5.6t12.5-5.65zM289.12 363a30.22 30.22 0 0 1-12.31-12.6 44.37 44.37 0 0 1 0-38.32 30.3 30.3 0 0 1 12.31-12.61 40.87 40.87 0 0 1 40.87 2.3 7.83 7.83 0 0 1 2.45 2.6 7.63 7.63 0 0 1 .75 3.6 8.1 8.1 0 0 1-1.75 5.26 5.33 5.33 0 0 1-4.26 2.15 7.65 7.65 0 0 1-2.7-.45 16.1 16.1 0 0 1-2.8-1.45 28.25 28.25 0 0 0-6.6-3 22.86 22.86 0 0 0-6.4-.9q-8.91 0-13.26 5.35t-4.35 16.26q0 11 4.35 16.36t13.26 5.35a18 18 0 0 0 5.8-1c1.87-.63 4.27-1.62 7.2-2.95 1.4-.74 2.44-1.24 3.1-1.51a6.63 6.63 0 0 1 2.4-.39 5.3 5.3 0 0 1 4.26 2.15 8.07 8.07 0 0 1 1.75 5.25 7.67 7.67 0 0 1-.75 3.55 7.59 7.59 0 0 1-2.45 2.65 38 38 0 0 1-22.32 6.71 37.62 37.62 0 0 1-18.55-4.36zM400.62 358.65a8 8 0 0 1-2.65 6 8.35 8.35 0 0 1-6 2.56 7.82 7.82 0 0 1-6.1-3l-17.21-20.61-17.46 20.55a7.76 7.76 0 0 1-6 3 8.29 8.29 0 0 1-6-2.61 8.15 8.15 0 0 1-2.65-6 8.25 8.25 0 0 1 2.1-5.4l19.21-22.21-18.71-21.71a8.3 8.3 0 0 1-2.2-5.41 8 8 0 0 1 2.65-5.95 8.51 8.51 0 0 1 6.06-2.55 7.87 7.87 0 0 1 6.1 3l16.91 20 16.81-20a7.29 7.29 0 0 1 5.9-3 8.49 8.49 0 0 1 6.05 2.55 8 8 0 0 1 2.65 5.95 8.26 8.26 0 0 1-2.1 5.41l-18.71 21.71 19.11 22.21a8.14 8.14 0 0 1 2.24 5.51z" fill="#ffffff" data-original="#ffffff" class=""></path></g></g></svg>